<svg width="33" height="33" viewBox="0 0 33 33" fill="none" xmlns="http://www.w3.org/2000/svg">
<path d="M33 24.75C33 29.3064 29.3064 33 24.75 33C20.1937 33 16.5 29.3064 16.5 24.75H33Z" fill="#1DC157"/>
<path d="M33 16.5C33 21.0563 29.3064 24.75 24.75 24.75C20.1937 24.75 16.5 21.0563 16.5 16.5H33Z" fill="#1DC157"/>
<path d="M24.75 0C29.3064 0 33 3.69365 33 8.25C33 12.8063 29.3064 16.5 24.75 16.5C20.1937 16.5 24.75 8.25 16.5 8.25C16.5 3.69365 20.1937 0 24.75 0Z" fill="#1DC157"/>
<path d="M8.25 16.5C12.8063 16.5 8.25 24.75 16.5 24.75C16.5 29.3064 12.8063 33 8.25 33C3.69365 33 0 29.3064 0 24.75C0 20.1937 3.69365 16.5 8.25 16.5Z" fill="#1DC157"/>
<path fill-rule="evenodd" clip-rule="evenodd" d="M8.25 0C12.8063 3.98329e-07 16.5 3.69365 16.5 8.25H0C3.98329e-07 3.69365 3.69365 -8.48872e-09 8.25 0ZM8.25 8.25C12.8063 8.25 16.5 11.9437 16.5 16.5H8.25H0C3.98329e-07 11.9437 3.69365 8.25 8.25 8.25Z" fill="#1DC157"/>
</svg>
