<svg width="178" height="33" viewBox="0 0 178 33" fill="none" xmlns="http://www.w3.org/2000/svg">
<path d="M8.25 16.5C12.8063 16.5 8.25 24.75 16.5 24.75C16.5 29.3063 12.8063 33 8.25 33C3.69365 33 0 29.3063 0 24.75C1.03081e-06 20.1937 3.69365 16.5 8.25 16.5ZM33 24.75C33 29.3063 29.3063 33 24.75 33C20.1937 33 16.5 29.3063 16.5 24.75H33ZM55.2402 7.08008C57.3735 7.08011 59.2265 7.54717 60.7998 8.48047C62.3731 9.4138 63.5871 10.7472 64.4404 12.4805C65.3202 14.2136 65.7597 16.2801 65.7598 18.6797V19.8799H50.6797C50.7597 21.5865 51.2135 22.853 52.04 23.6797C52.8934 24.5064 54.0137 24.9199 55.4004 24.9199C56.4135 24.9199 57.2534 24.7068 57.9199 24.2803C58.6132 23.8536 59.1071 23.2002 59.4004 22.3203L65.4404 22.6797C64.8804 24.813 63.6932 26.4797 61.8799 27.6797C60.0666 28.8796 57.8668 29.4804 55.2803 29.4805C53.0936 29.4805 51.1862 29.0268 49.5596 28.1201C47.9597 27.1868 46.7064 25.8801 45.7998 24.2002C44.9198 22.5203 44.4805 20.5468 44.4805 18.2803C44.4805 16.0138 44.9199 14.0536 45.7998 12.4004C46.7064 10.7206 47.9598 9.41378 49.5596 8.48047C51.1596 7.54713 53.0536 7.08008 55.2402 7.08008ZM77.5879 7.08008C79.4812 7.08008 81.1747 7.41344 82.668 8.08008C84.1879 8.7467 85.4143 9.70675 86.3477 10.96C87.281 12.2133 87.855 13.7205 88.0684 15.4805L81.8682 15.7598C81.6815 14.4265 81.201 13.4264 80.4277 12.7598C79.6811 12.0666 78.7344 11.7197 77.5879 11.7197C76.0947 11.7198 74.935 12.2938 74.1084 13.4404C73.2818 14.5871 72.8682 16.2004 72.8682 18.2803C72.8682 20.3601 73.2818 21.9869 74.1084 23.1602C74.935 24.3066 76.0948 24.8798 77.5879 24.8799C78.7345 24.8799 79.6945 24.5331 80.4678 23.8398C81.2411 23.1198 81.7082 22.0396 81.8682 20.5996L88.0684 20.8398C87.8817 22.5998 87.321 24.1338 86.3877 25.4404C85.4811 26.7202 84.2679 27.7205 82.748 28.4404C81.2548 29.1337 79.5345 29.4805 77.5879 29.4805C75.4014 29.4804 73.4948 29.0267 71.8682 28.1201C70.2416 27.1868 68.975 25.8801 68.0684 24.2002C67.1617 22.5203 66.708 20.5468 66.708 18.2803C66.708 16.0137 67.1618 14.0537 68.0684 12.4004C68.975 10.7205 70.2416 9.4138 71.8682 8.48047C73.4948 7.54717 75.4013 7.08011 77.5879 7.08008ZM121.849 7.08008C124.035 7.08008 125.943 7.54713 127.569 8.48047C129.196 9.41379 130.463 10.7205 131.369 12.4004C132.276 14.0537 132.729 16.0138 132.729 18.2803C132.729 20.5468 132.276 22.5203 131.369 24.2002C130.463 25.8801 129.196 27.1868 127.569 28.1201C125.943 29.0268 124.035 29.4805 121.849 29.4805C119.662 29.4804 117.755 29.0267 116.129 28.1201C114.502 27.1868 113.236 25.8801 112.329 24.2002C111.422 22.5203 110.969 20.5468 110.969 18.2803C110.969 16.0137 111.423 14.0537 112.329 12.4004C113.236 10.7205 114.502 9.41379 116.129 8.48047C117.755 7.5472 119.662 7.08014 121.849 7.08008ZM144.465 7.08008C146.598 7.08008 148.452 7.54713 150.025 8.48047C151.598 9.41379 152.812 10.7473 153.665 12.4805C154.545 14.2136 154.985 16.28 154.985 18.6797V19.8799H139.905C139.985 21.5863 140.438 22.853 141.265 23.6797C142.118 24.5064 143.238 24.9199 144.625 24.9199C145.638 24.9199 146.478 24.7067 147.145 24.2803C147.838 23.8537 148.332 23.2002 148.625 22.3203L154.665 22.6797C154.105 24.8128 152.919 26.4797 151.105 27.6797C149.292 28.8797 147.092 29.4805 144.505 29.4805C142.318 29.4805 140.412 29.0267 138.785 28.1201C137.185 27.1868 135.932 25.88 135.025 24.2002C134.145 22.5203 133.705 20.5468 133.705 18.2803C133.705 16.0137 134.145 14.0537 135.025 12.4004C135.932 10.7204 137.185 9.4138 138.785 8.48047C140.385 7.54716 142.278 7.0801 144.465 7.08008ZM177.173 29H171.453L171.333 25.8398C170.746 26.9864 169.867 27.8795 168.693 28.5195C167.547 29.1595 166.227 29.4804 164.733 29.4805C162.92 29.4805 161.346 29.0268 160.013 28.1201C158.706 27.1868 157.693 25.8935 156.973 24.2402C156.279 22.5603 155.934 20.5735 155.934 18.2803C155.934 15.9871 156.293 14.0136 157.013 12.3604C157.733 10.6806 158.746 9.38712 160.053 8.48047C161.386 7.54713 162.947 7.08008 164.733 7.08008C166.253 7.08012 167.56 7.40008 168.653 8.04004C169.773 8.65329 170.613 9.50653 171.173 10.5996V0.599609H177.173V29ZM95.7842 10.1533C95.917 9.91357 96.0635 9.68933 96.2236 9.48047C96.8636 8.68047 97.6507 8.07969 98.584 7.67969C99.5439 7.27977 100.584 7.08008 101.704 7.08008C103.304 7.08013 104.638 7.42683 105.704 8.12012C106.771 8.81342 107.57 9.77349 108.104 11C108.664 12.2267 108.943 13.6269 108.943 15.2002V29H102.943V16.6396C102.943 15.0398 102.69 13.84 102.184 13.04C101.704 12.2401 100.877 11.8399 99.7041 11.8398C98.4775 11.8398 97.5175 12.2535 96.8242 13.0801C96.1309 13.9067 95.7842 15.1466 95.7842 16.7998V29H89.7842V0.599609H95.7842V10.1533ZM121.849 11.6797C120.356 11.6798 119.196 12.2672 118.369 13.4404C117.543 14.5871 117.129 16.2004 117.129 18.2803C117.129 20.3601 117.543 21.9869 118.369 23.1602C119.196 24.3066 120.356 24.8798 121.849 24.8799C123.342 24.8799 124.502 24.3068 125.329 23.1602C126.156 21.9869 126.569 20.3601 126.569 18.2803C126.569 16.2005 126.156 14.5871 125.329 13.4404C124.502 12.2671 123.342 11.6797 121.849 11.6797ZM166.693 11.6797C165.28 11.6797 164.16 12.2805 163.333 13.4805C162.507 14.6538 162.093 16.2538 162.093 18.2803C162.093 20.2801 162.506 21.8801 163.333 23.0801C164.186 24.2801 165.307 24.8799 166.693 24.8799C167.653 24.8798 168.466 24.6266 169.133 24.1201C169.799 23.6135 170.307 22.8799 170.653 21.9199C171 20.9333 171.173 19.7201 171.173 18.2803C171.173 16.8136 171 15.5996 170.653 14.6396C170.307 13.6531 169.799 12.9204 169.133 12.4404C168.466 11.9338 167.653 11.6797 166.693 11.6797ZM33 16.5C33 21.0563 29.3063 24.75 24.75 24.75C20.1937 24.75 16.5 21.0563 16.5 16.5H33ZM8.25 8.25C12.8063 8.25 16.5 11.9437 16.5 16.5H0C3.98329e-07 11.9437 3.69365 8.25 8.25 8.25ZM24.75 0C29.3063 0 33 3.69365 33 8.25C33 12.8063 29.3063 16.5 24.75 16.5C20.1937 16.5 24.75 8.25 16.5 8.25C16.5 3.69365 20.1937 1.03084e-06 24.75 0ZM55.2402 11.5195C53.987 11.5195 52.9468 11.9332 52.1201 12.7598C51.3201 13.5598 50.8397 14.7069 50.6797 16.2002H59.5996C59.5196 14.6269 59.0803 13.453 58.2803 12.6797C57.507 11.9064 56.4934 11.5196 55.2402 11.5195ZM144.465 11.5195C143.212 11.5196 142.171 11.9331 141.345 12.7598C140.545 13.5598 140.065 14.7069 139.905 16.2002H148.825C148.745 14.6269 148.305 13.453 147.505 12.6797C146.732 11.9065 145.718 11.5195 144.465 11.5195ZM8.25 0C12.8063 3.98329e-07 16.5 3.69365 16.5 8.25H0C3.98329e-07 3.69365 3.69365 -8.48872e-09 8.25 0Z" fill="#1DC157"/>
</svg>
